<?xml version="1.0" encoding="UTF-8"?>
<!DOCTYPE svg PUBLIC "-//W3C//DTD SVG 1.1//EN" "http://www.w3.org/Graphics/SVG/1.1/DTD/svg11.dtd">
<svg width="178mm" height="97mm" viewBox="0 0 17800 9700" version="1.1" baseProfile="tiny" xmlns="http://www.w3.org/2000/svg" stroke-width="28.222" stroke-linejoin="round" xml:space="preserve">
 <path fill="rgb(255,255,255)" stroke="none" d="M 8894,9721 L 0,9721 0,0 17787,0 17787,9721 8894,9721 Z"/>
 <path fill="none" stroke="rgb(179,179,179)" stroke-linejoin="round" d="M 8474,7899 L 1987,7899 1987,393 14961,393 14961,7899 8474,7899 Z"/>
 <path fill="none" stroke="rgb(179,179,179)" stroke-linejoin="round" d="M 14961,7898 L 1987,7898"/>
 <path fill="none" stroke="rgb(179,179,179)" stroke-linejoin="round" d="M 14961,6646 L 1987,6646"/>
 <path fill="none" stroke="rgb(179,179,179)" stroke-linejoin="round" d="M 14961,5395 L 1987,5395"/>
 <path fill="none" stroke="rgb(179,179,179)" stroke-linejoin="round" d="M 14961,4145 L 1987,4145"/>
 <path fill="none" stroke="rgb(179,179,179)" stroke-linejoin="round" d="M 14961,2894 L 1987,2894"/>
 <path fill="none" stroke="rgb(179,179,179)" stroke-linejoin="round" d="M 14961,1643 L 1987,1643"/>
 <path fill="none" stroke="rgb(179,179,179)" stroke-linejoin="round" d="M 14961,392 L 1987,392"/>
 <path fill="none" stroke="rgb(179,179,179)" stroke-linejoin="round" d="M 1987,8048 L 1987,7898"/>
 <path fill="none" stroke="rgb(179,179,179)" stroke-linejoin="round" d="M 1987,8048 L 1987,7898"/>
 <path fill="none" stroke="rgb(179,179,179)" stroke-linejoin="round" d="M 2635,8048 L 2635,7898"/>
 <path fill="none" stroke="rgb(179,179,179)" stroke-linejoin="round" d="M 2635,8048 L 2635,7898"/>
 <path fill="none" stroke="rgb(179,179,179)" stroke-linejoin="round" d="M 3284,8048 L 3284,7898"/>
 <path fill="none" stroke="rgb(179,179,179)" stroke-linejoin="round" d="M 3284,8048 L 3284,7898"/>
 <path fill="none" stroke="rgb(179,179,179)" stroke-linejoin="round" d="M 3933,8048 L 3933,7898"/>
 <path fill="none" stroke="rgb(179,179,179)" stroke-linejoin="round" d="M 3933,8048 L 3933,7898"/>
 <path fill="none" stroke="rgb(179,179,179)" stroke-linejoin="round" d="M 4582,8048 L 4582,7898"/>
 <path fill="none" stroke="rgb(179,179,179)" stroke-linejoin="round" d="M 4582,8048 L 4582,7898"/>
 <path fill="none" stroke="rgb(179,179,179)" stroke-linejoin="round" d="M 5230,8048 L 5230,7898"/>
 <path fill="none" stroke="rgb(179,179,179)" stroke-linejoin="round" d="M 5230,8048 L 5230,7898"/>
 <path fill="none" stroke="rgb(179,179,179)" stroke-linejoin="round" d="M 5879,8048 L 5879,7898"/>
 <path fill="none" stroke="rgb(179,179,179)" stroke-linejoin="round" d="M 5879,8048 L 5879,7898"/>
 <path fill="none" stroke="rgb(179,179,179)" stroke-linejoin="round" d="M 6528,8048 L 6528,7898"/>
 <path fill="none" stroke="rgb(179,179,179)" stroke-linejoin="round" d="M 6528,8048 L 6528,7898"/>
 <path fill="none" stroke="rgb(179,179,179)" stroke-linejoin="round" d="M 7177,8048 L 7177,7898"/>
 <path fill="none" stroke="rgb(179,179,179)" stroke-linejoin="round" d="M 7177,8048 L 7177,7898"/>
 <path fill="none" stroke="rgb(179,179,179)" stroke-linejoin="round" d="M 7825,8048 L 7825,7898"/>
 <path fill="none" stroke="rgb(179,179,179)" stroke-linejoin="round" d="M 7825,8048 L 7825,7898"/>
 <path fill="none" stroke="rgb(179,179,179)" stroke-linejoin="round" d="M 8474,8048 L 8474,7898"/>
 <path fill="none" stroke="rgb(179,179,179)" stroke-linejoin="round" d="M 8474,8048 L 8474,7898"/>
 <path fill="none" stroke="rgb(179,179,179)" stroke-linejoin="round" d="M 9122,8048 L 9122,7898"/>
 <path fill="none" stroke="rgb(179,179,179)" stroke-linejoin="round" d="M 9122,8048 L 9122,7898"/>
 <path fill="none" stroke="rgb(179,179,179)" stroke-linejoin="round" d="M 9771,8048 L 9771,7898"/>
 <path fill="none" stroke="rgb(179,179,179)" stroke-linejoin="round" d="M 9771,8048 L 9771,7898"/>
 <path fill="none" stroke="rgb(179,179,179)" stroke-linejoin="round" d="M 10419,8048 L 10419,7898"/>
 <path fill="none" stroke="rgb(179,179,179)" stroke-linejoin="round" d="M 10419,8048 L 10419,7898"/>
 <path fill="none" stroke="rgb(179,179,179)" stroke-linejoin="round" d="M 11068,8048 L 11068,7898"/>
 <path fill="none" stroke="rgb(179,179,179)" stroke-linejoin="round" d="M 11068,8048 L 11068,7898"/>
 <path fill="none" stroke="rgb(179,179,179)" stroke-linejoin="round" d="M 11717,8048 L 11717,7898"/>
 <path fill="none" stroke="rgb(179,179,179)" stroke-linejoin="round" d="M 11717,8048 L 11717,7898"/>
 <path fill="none" stroke="rgb(179,179,179)" stroke-linejoin="round" d="M 12366,8048 L 12366,7898"/>
 <path fill="none" stroke="rgb(179,179,179)" stroke-linejoin="round" d="M 12366,8048 L 12366,7898"/>
 <path fill="none" stroke="rgb(179,179,179)" stroke-linejoin="round" d="M 13014,8048 L 13014,7898"/>
 <path fill="none" stroke="rgb(179,179,179)" stroke-linejoin="round" d="M 13014,8048 L 13014,7898"/>
 <path fill="none" stroke="rgb(179,179,179)" stroke-linejoin="round" d="M 13663,8048 L 13663,7898"/>
 <path fill="none" stroke="rgb(179,179,179)" stroke-linejoin="round" d="M 13663,8048 L 13663,7898"/>
 <path fill="none" stroke="rgb(179,179,179)" stroke-linejoin="round" d="M 14312,8048 L 14312,7898"/>
 <path fill="none" stroke="rgb(179,179,179)" stroke-linejoin="round" d="M 14312,8048 L 14312,7898"/>
 <path fill="none" stroke="rgb(179,179,179)" stroke-linejoin="round" d="M 14961,8048 L 14961,7898"/>
 <path fill="none" stroke="rgb(179,179,179)" stroke-linejoin="round" d="M 14961,8048 L 14961,7898"/>
 <path fill="none" stroke="rgb(179,179,179)" stroke-linejoin="round" d="M 1987,7898 L 14961,7898"/>
 <path fill="none" stroke="rgb(179,179,179)" stroke-linejoin="round" d="M 1837,7898 L 1987,7898"/>
 <path fill="none" stroke="rgb(179,179,179)" stroke-linejoin="round" d="M 1837,7898 L 1987,7898"/>
 <path fill="none" stroke="rgb(179,179,179)" stroke-linejoin="round" d="M 1837,6646 L 1987,6646"/>
 <path fill="none" stroke="rgb(179,179,179)" stroke-linejoin="round" d="M 1837,6646 L 1987,6646"/>
 <path fill="none" stroke="rgb(179,179,179)" stroke-linejoin="round" d="M 1837,5395 L 1987,5395"/>
 <path fill="none" stroke="rgb(179,179,179)" stroke-linejoin="round" d="M 1837,5395 L 1987,5395"/>
 <path fill="none" stroke="rgb(179,179,179)" stroke-linejoin="round" d="M 1837,4145 L 1987,4145"/>
 <path fill="none" stroke="rgb(179,179,179)" stroke-linejoin="round" d="M 1837,4145 L 1987,4145"/>
 <path fill="none" stroke="rgb(179,179,179)" stroke-linejoin="round" d="M 1837,2894 L 1987,2894"/>
 <path fill="none" stroke="rgb(179,179,179)" stroke-linejoin="round" d="M 1837,2894 L 1987,2894"/>
 <path fill="none" stroke="rgb(179,179,179)" stroke-linejoin="round" d="M 1837,1643 L 1987,1643"/>
 <path fill="none" stroke="rgb(179,179,179)" stroke-linejoin="round" d="M 1837,1643 L 1987,1643"/>
 <path fill="none" stroke="rgb(179,179,179)" stroke-linejoin="round" d="M 1837,392 L 1987,392"/>
 <path fill="none" stroke="rgb(179,179,179)" stroke-linejoin="round" d="M 1837,392 L 1987,392"/>
 <path fill="none" stroke="rgb(179,179,179)" stroke-linejoin="round" d="M 1987,7898 L 1987,392"/>
 <path fill="none" stroke="rgb(0,69,134)" stroke-width="80" stroke-linejoin="round" d="M 1987,6396 L 2635,6396 3284,6521 3933,6396 4582,6396 5230,6521 5879,6146 6528,6396 7177,6396 7825,6146 8474,6146 9122,6021 9771,5896 10419,5771 11068,5645 11717,5395 12366,5270 13014,5145 13663,5020 14312,4895 14961,4645"/>
 <path fill="rgb(0,69,134)" stroke="none" d="M 1862,6271 L 1862,6521 2112,6521 2112,6271 1862,6271 Z"/>
 <path fill="none" stroke="rgb(0,69,134)" stroke-linejoin="round" d="M 1862,6271 L 1862,6521 2112,6521 2112,6271 1862,6271 Z"/>
 <path fill="rgb(0,69,134)" stroke="none" d="M 2510,6271 L 2510,6521 2760,6521 2760,6271 2510,6271 Z"/>
 <path fill="none" stroke="rgb(0,69,134)" stroke-linejoin="round" d="M 2510,6271 L 2510,6521 2760,6521 2760,6271 2510,6271 Z"/>
 <path fill="rgb(0,69,134)" stroke="none" d="M 3159,6396 L 3159,6646 3409,6646 3409,6396 3159,6396 Z"/>
 <path fill="none" stroke="rgb(0,69,134)" stroke-linejoin="round" d="M 3159,6396 L 3159,6646 3409,6646 3409,6396 3159,6396 Z"/>
 <path fill="rgb(0,69,134)" stroke="none" d="M 3808,6271 L 3808,6521 4058,6521 4058,6271 3808,6271 Z"/>
 <path fill="none" stroke="rgb(0,69,134)" stroke-linejoin="round" d="M 3808,6271 L 3808,6521 4058,6521 4058,6271 3808,6271 Z"/>
 <path fill="rgb(0,69,134)" stroke="none" d="M 4457,6271 L 4457,6521 4707,6521 4707,6271 4457,6271 Z"/>
 <path fill="none" stroke="rgb(0,69,134)" stroke-linejoin="round" d="M 4457,6271 L 4457,6521 4707,6521 4707,6271 4457,6271 Z"/>
 <path fill="rgb(0,69,134)" stroke="none" d="M 5105,6396 L 5105,6646 5355,6646 5355,6396 5105,6396 Z"/>
 <path fill="none" stroke="rgb(0,69,134)" stroke-linejoin="round" d="M 5105,6396 L 5105,6646 5355,6646 5355,6396 5105,6396 Z"/>
 <path fill="rgb(0,69,134)" stroke="none" d="M 5754,6021 L 5754,6271 6004,6271 6004,6021 5754,6021 Z"/>
 <path fill="none" stroke="rgb(0,69,134)" stroke-linejoin="round" d="M 5754,6021 L 5754,6271 6004,6271 6004,6021 5754,6021 Z"/>
 <path fill="rgb(0,69,134)" stroke="none" d="M 6403,6271 L 6403,6521 6653,6521 6653,6271 6403,6271 Z"/>
 <path fill="none" stroke="rgb(0,69,134)" stroke-linejoin="round" d="M 6403,6271 L 6403,6521 6653,6521 6653,6271 6403,6271 Z"/>
 <path fill="rgb(0,69,134)" stroke="none" d="M 7052,6271 L 7052,6521 7302,6521 7302,6271 7052,6271 Z"/>
 <path fill="none" stroke="rgb(0,69,134)" stroke-linejoin="round" d="M 7052,6271 L 7052,6521 7302,6521 7302,6271 7052,6271 Z"/>
 <path fill="rgb(0,69,134)" stroke="none" d="M 7700,6021 L 7700,6271 7950,6271 7950,6021 7700,6021 Z"/>
 <path fill="none" stroke="rgb(0,69,134)" stroke-linejoin="round" d="M 7700,6021 L 7700,6271 7950,6271 7950,6021 7700,6021 Z"/>
 <path fill="rgb(0,69,134)" stroke="none" d="M 8349,6021 L 8349,6271 8599,6271 8599,6021 8349,6021 Z"/>
 <path fill="none" stroke="rgb(0,69,134)" stroke-linejoin="round" d="M 8349,6021 L 8349,6271 8599,6271 8599,6021 8349,6021 Z"/>
 <path fill="rgb(0,69,134)" stroke="none" d="M 8997,5896 L 8997,6146 9247,6146 9247,5896 8997,5896 Z"/>
 <path fill="none" stroke="rgb(0,69,134)" stroke-linejoin="round" d="M 8997,5896 L 8997,6146 9247,6146 9247,5896 8997,5896 Z"/>
 <path fill="rgb(0,69,134)" stroke="none" d="M 9646,5771 L 9646,6021 9896,6021 9896,5771 9646,5771 Z"/>
 <path fill="none" stroke="rgb(0,69,134)" stroke-linejoin="round" d="M 9646,5771 L 9646,6021 9896,6021 9896,5771 9646,5771 Z"/>
 <path fill="rgb(0,69,134)" stroke="none" d="M 10294,5646 L 10294,5896 10544,5896 10544,5646 10294,5646 Z"/>
 <path fill="none" stroke="rgb(0,69,134)" stroke-linejoin="round" d="M 10294,5646 L 10294,5896 10544,5896 10544,5646 10294,5646 Z"/>
 <path fill="rgb(0,69,134)" stroke="none" d="M 10943,5520 L 10943,5770 11193,5770 11193,5520 10943,5520 Z"/>
 <path fill="none" stroke="rgb(0,69,134)" stroke-linejoin="round" d="M 10943,5520 L 10943,5770 11193,5770 11193,5520 10943,5520 Z"/>
 <path fill="rgb(0,69,134)" stroke="none" d="M 11592,5270 L 11592,5520 11842,5520 11842,5270 11592,5270 Z"/>
 <path fill="none" stroke="rgb(0,69,134)" stroke-linejoin="round" d="M 11592,5270 L 11592,5520 11842,5520 11842,5270 11592,5270 Z"/>
 <path fill="rgb(0,69,134)" stroke="none" d="M 12241,5145 L 12241,5395 12491,5395 12491,5145 12241,5145 Z"/>
 <path fill="none" stroke="rgb(0,69,134)" stroke-linejoin="round" d="M 12241,5145 L 12241,5395 12491,5395 12491,5145 12241,5145 Z"/>
 <path fill="rgb(0,69,134)" stroke="none" d="M 12889,5020 L 12889,5270 13139,5270 13139,5020 12889,5020 Z"/>
 <path fill="none" stroke="rgb(0,69,134)" stroke-linejoin="round" d="M 12889,5020 L 12889,5270 13139,5270 13139,5020 12889,5020 Z"/>
 <path fill="rgb(0,69,134)" stroke="none" d="M 13538,4895 L 13538,5145 13788,5145 13788,4895 13538,4895 Z"/>
 <path fill="none" stroke="rgb(0,69,134)" stroke-linejoin="round" d="M 13538,4895 L 13538,5145 13788,5145 13788,4895 13538,4895 Z"/>
 <path fill="rgb(0,69,134)" stroke="none" d="M 14187,4771 L 14187,5020 14437,5020 14437,4771 14187,4771 Z"/>
 <path fill="none" stroke="rgb(0,69,134)" stroke-linejoin="round" d="M 14187,4771 L 14187,5020 14437,5020 14437,4771 14187,4771 Z"/>
 <path fill="rgb(0,69,134)" stroke="none" d="M 14836,4520 L 14836,4770 15086,4770 15086,4520 14836,4520 Z"/>
 <path fill="none" stroke="rgb(0,69,134)" stroke-linejoin="round" d="M 14836,4520 L 14836,4770 15086,4770 15086,4520 14836,4520 Z"/>
 <path fill="none" stroke="rgb(255,66,14)" stroke-width="80" stroke-linejoin="round" d="M 1987,6521 L 2635,6396 3284,6396 3933,6396 4582,6521 5230,6271 5879,6021 6528,5896 7177,5771 7825,5395 8474,5270 9122,5020 9771,4771 10419,4520 11068,4270 11717,4020 12366,3895 13014,3394 13663,3394 14312,3144 14961,2769"/>
 <path fill="rgb(255,66,14)" stroke="none" d="M 1862,6521 L 1987,6646 2112,6521 1987,6396 1862,6521 Z"/>
 <path fill="none" stroke="rgb(255,66,14)" stroke-linejoin="round" d="M 1862,6521 L 1987,6646 2112,6521 1987,6396 1862,6521 Z"/>
 <path fill="rgb(255,66,14)" stroke="none" d="M 2510,6396 L 2635,6521 2760,6396 2635,6271 2510,6396 Z"/>
 <path fill="none" stroke="rgb(255,66,14)" stroke-linejoin="round" d="M 2510,6396 L 2635,6521 2760,6396 2635,6271 2510,6396 Z"/>
 <path fill="rgb(255,66,14)" stroke="none" d="M 3159,6396 L 3284,6521 3409,6396 3284,6271 3159,6396 Z"/>
 <path fill="none" stroke="rgb(255,66,14)" stroke-linejoin="round" d="M 3159,6396 L 3284,6521 3409,6396 3284,6271 3159,6396 Z"/>
 <path fill="rgb(255,66,14)" stroke="none" d="M 3808,6396 L 3933,6521 4058,6396 3933,6271 3808,6396 Z"/>
 <path fill="none" stroke="rgb(255,66,14)" stroke-linejoin="round" d="M 3808,6396 L 3933,6521 4058,6396 3933,6271 3808,6396 Z"/>
 <path fill="rgb(255,66,14)" stroke="none" d="M 4457,6521 L 4582,6646 4707,6521 4582,6396 4457,6521 Z"/>
 <path fill="none" stroke="rgb(255,66,14)" stroke-linejoin="round" d="M 4457,6521 L 4582,6646 4707,6521 4582,6396 4457,6521 Z"/>
 <path fill="rgb(255,66,14)" stroke="none" d="M 5105,6271 L 5230,6396 5355,6271 5230,6146 5105,6271 Z"/>
 <path fill="none" stroke="rgb(255,66,14)" stroke-linejoin="round" d="M 5105,6271 L 5230,6396 5355,6271 5230,6146 5105,6271 Z"/>
 <path fill="rgb(255,66,14)" stroke="none" d="M 5754,6021 L 5879,6146 6004,6021 5879,5896 5754,6021 Z"/>
 <path fill="none" stroke="rgb(255,66,14)" stroke-linejoin="round" d="M 5754,6021 L 5879,6146 6004,6021 5879,5896 5754,6021 Z"/>
 <path fill="rgb(255,66,14)" stroke="none" d="M 6403,5896 L 6528,6021 6653,5896 6528,5771 6403,5896 Z"/>
 <path fill="none" stroke="rgb(255,66,14)" stroke-linejoin="round" d="M 6403,5896 L 6528,6021 6653,5896 6528,5771 6403,5896 Z"/>
 <path fill="rgb(255,66,14)" stroke="none" d="M 7052,5771 L 7177,5896 7302,5771 7177,5646 7052,5771 Z"/>
 <path fill="none" stroke="rgb(255,66,14)" stroke-linejoin="round" d="M 7052,5771 L 7177,5896 7302,5771 7177,5646 7052,5771 Z"/>
 <path fill="rgb(255,66,14)" stroke="none" d="M 7700,5395 L 7825,5520 7950,5395 7825,5270 7700,5395 Z"/>
 <path fill="none" stroke="rgb(255,66,14)" stroke-linejoin="round" d="M 7700,5395 L 7825,5520 7950,5395 7825,5270 7700,5395 Z"/>
 <path fill="rgb(255,66,14)" stroke="none" d="M 8349,5270 L 8474,5395 8599,5270 8474,5145 8349,5270 Z"/>
 <path fill="none" stroke="rgb(255,66,14)" stroke-linejoin="round" d="M 8349,5270 L 8474,5395 8599,5270 8474,5145 8349,5270 Z"/>
 <path fill="rgb(255,66,14)" stroke="none" d="M 8997,5020 L 9122,5145 9247,5020 9122,4895 8997,5020 Z"/>
 <path fill="none" stroke="rgb(255,66,14)" stroke-linejoin="round" d="M 8997,5020 L 9122,5145 9247,5020 9122,4895 8997,5020 Z"/>
 <path fill="rgb(255,66,14)" stroke="none" d="M 9646,4771 L 9771,4895 9896,4771 9771,4646 9646,4771 Z"/>
 <path fill="none" stroke="rgb(255,66,14)" stroke-linejoin="round" d="M 9646,4771 L 9771,4895 9896,4771 9771,4646 9646,4771 Z"/>
 <path fill="rgb(255,66,14)" stroke="none" d="M 10294,4520 L 10419,4645 10544,4520 10419,4395 10294,4520 Z"/>
 <path fill="none" stroke="rgb(255,66,14)" stroke-linejoin="round" d="M 10294,4520 L 10419,4645 10544,4520 10419,4395 10294,4520 Z"/>
 <path fill="rgb(255,66,14)" stroke="none" d="M 10943,4270 L 11068,4395 11193,4270 11068,4145 10943,4270 Z"/>
 <path fill="none" stroke="rgb(255,66,14)" stroke-linejoin="round" d="M 10943,4270 L 11068,4395 11193,4270 11068,4145 10943,4270 Z"/>
 <path fill="rgb(255,66,14)" stroke="none" d="M 11592,4020 L 11717,4145 11842,4020 11717,3895 11592,4020 Z"/>
 <path fill="none" stroke="rgb(255,66,14)" stroke-linejoin="round" d="M 11592,4020 L 11717,4145 11842,4020 11717,3895 11592,4020 Z"/>
 <path fill="rgb(255,66,14)" stroke="none" d="M 12241,3895 L 12366,4020 12491,3895 12366,3770 12241,3895 Z"/>
 <path fill="none" stroke="rgb(255,66,14)" stroke-linejoin="round" d="M 12241,3895 L 12366,4020 12491,3895 12366,3770 12241,3895 Z"/>
 <path fill="rgb(255,66,14)" stroke="none" d="M 12889,3394 L 13014,3519 13139,3394 13014,3269 12889,3394 Z"/>
 <path fill="none" stroke="rgb(255,66,14)" stroke-linejoin="round" d="M 12889,3394 L 13014,3519 13139,3394 13014,3269 12889,3394 Z"/>
 <path fill="rgb(255,66,14)" stroke="none" d="M 13538,3394 L 13663,3519 13788,3394 13663,3269 13538,3394 Z"/>
 <path fill="none" stroke="rgb(255,66,14)" stroke-linejoin="round" d="M 13538,3394 L 13663,3519 13788,3394 13663,3269 13538,3394 Z"/>
 <path fill="rgb(255,66,14)" stroke="none" d="M 14187,3144 L 14312,3269 14437,3144 14312,3019 14187,3144 Z"/>
 <path fill="none" stroke="rgb(255,66,14)" stroke-linejoin="round" d="M 14187,3144 L 14312,3269 14437,3144 14312,3019 14187,3144 Z"/>
 <path fill="rgb(255,66,14)" stroke="none" d="M 14836,2769 L 14961,2894 15086,2769 14961,2644 14836,2769 Z"/>
 <path fill="none" stroke="rgb(255,66,14)" stroke-linejoin="round" d="M 14836,2769 L 14961,2894 15086,2769 14961,2644 14836,2769 Z"/>
 <path fill="none" stroke="rgb(255,211,32)" stroke-width="80" stroke-linejoin="round" d="M 1987,6521 L 2635,6521 3284,6396 3933,6396 4582,6396 5230,6146 5879,5896 6528,5645 7177,5270 7825,5020 8474,4771 9122,4520 9771,4145 10419,3770 11068,3519 11717,3269 12366,3019 13014,2894 13663,2268 14312,2018 14961,1768"/>
 <path fill="rgb(255,211,32)" stroke="none" d="M 1862,6396 L 1987,6646 2112,6396 1862,6396 Z"/>
 <path fill="none" stroke="rgb(255,211,32)" stroke-linejoin="round" d="M 1862,6396 L 1987,6646 2112,6396 1862,6396 Z"/>
 <path fill="rgb(255,211,32)" stroke="none" d="M 2510,6396 L 2635,6646 2760,6396 2510,6396 Z"/>
 <path fill="none" stroke="rgb(255,211,32)" stroke-linejoin="round" d="M 2510,6396 L 2635,6646 2760,6396 2510,6396 Z"/>
 <path fill="rgb(255,211,32)" stroke="none" d="M 3159,6271 L 3284,6521 3409,6271 3159,6271 Z"/>
 <path fill="none" stroke="rgb(255,211,32)" stroke-linejoin="round" d="M 3159,6271 L 3284,6521 3409,6271 3159,6271 Z"/>
 <path fill="rgb(255,211,32)" stroke="none" d="M 3808,6271 L 3933,6521 4058,6271 3808,6271 Z"/>
 <path fill="none" stroke="rgb(255,211,32)" stroke-linejoin="round" d="M 3808,6271 L 3933,6521 4058,6271 3808,6271 Z"/>
 <path fill="rgb(255,211,32)" stroke="none" d="M 4457,6271 L 4582,6521 4707,6271 4457,6271 Z"/>
 <path fill="none" stroke="rgb(255,211,32)" stroke-linejoin="round" d="M 4457,6271 L 4582,6521 4707,6271 4457,6271 Z"/>
 <path fill="rgb(255,211,32)" stroke="none" d="M 5105,6021 L 5230,6271 5355,6021 5105,6021 Z"/>
 <path fill="none" stroke="rgb(255,211,32)" stroke-linejoin="round" d="M 5105,6021 L 5230,6271 5355,6021 5105,6021 Z"/>
 <path fill="rgb(255,211,32)" stroke="none" d="M 5754,5771 L 5879,6021 6004,5771 5754,5771 Z"/>
 <path fill="none" stroke="rgb(255,211,32)" stroke-linejoin="round" d="M 5754,5771 L 5879,6021 6004,5771 5754,5771 Z"/>
 <path fill="rgb(255,211,32)" stroke="none" d="M 6403,5520 L 6528,5770 6653,5520 6403,5520 Z"/>
 <path fill="none" stroke="rgb(255,211,32)" stroke-linejoin="round" d="M 6403,5520 L 6528,5770 6653,5520 6403,5520 Z"/>
 <path fill="rgb(255,211,32)" stroke="none" d="M 7052,5145 L 7177,5395 7302,5145 7052,5145 Z"/>
 <path fill="none" stroke="rgb(255,211,32)" stroke-linejoin="round" d="M 7052,5145 L 7177,5395 7302,5145 7052,5145 Z"/>
 <path fill="rgb(255,211,32)" stroke="none" d="M 7700,4895 L 7825,5145 7950,4895 7700,4895 Z"/>
 <path fill="none" stroke="rgb(255,211,32)" stroke-linejoin="round" d="M 7700,4895 L 7825,5145 7950,4895 7700,4895 Z"/>
 <path fill="rgb(255,211,32)" stroke="none" d="M 8349,4646 L 8474,4895 8599,4646 8349,4646 Z"/>
 <path fill="none" stroke="rgb(255,211,32)" stroke-linejoin="round" d="M 8349,4646 L 8474,4895 8599,4646 8349,4646 Z"/>
 <path fill="rgb(255,211,32)" stroke="none" d="M 8997,4395 L 9122,4645 9247,4395 8997,4395 Z"/>
 <path fill="none" stroke="rgb(255,211,32)" stroke-linejoin="round" d="M 8997,4395 L 9122,4645 9247,4395 8997,4395 Z"/>
 <path fill="rgb(255,211,32)" stroke="none" d="M 9646,4020 L 9771,4270 9896,4020 9646,4020 Z"/>
 <path fill="none" stroke="rgb(255,211,32)" stroke-linejoin="round" d="M 9646,4020 L 9771,4270 9896,4020 9646,4020 Z"/>
 <path fill="rgb(255,211,32)" stroke="none" d="M 10294,3645 L 10419,3895 10544,3645 10294,3645 Z"/>
 <path fill="none" stroke="rgb(255,211,32)" stroke-linejoin="round" d="M 10294,3645 L 10419,3895 10544,3645 10294,3645 Z"/>
 <path fill="rgb(255,211,32)" stroke="none" d="M 10943,3394 L 11068,3644 11193,3394 10943,3394 Z"/>
 <path fill="none" stroke="rgb(255,211,32)" stroke-linejoin="round" d="M 10943,3394 L 11068,3644 11193,3394 10943,3394 Z"/>
 <path fill="rgb(255,211,32)" stroke="none" d="M 11592,3144 L 11717,3394 11842,3144 11592,3144 Z"/>
 <path fill="none" stroke="rgb(255,211,32)" stroke-linejoin="round" d="M 11592,3144 L 11717,3394 11842,3144 11592,3144 Z"/>
 <path fill="rgb(255,211,32)" stroke="none" d="M 12241,2894 L 12366,3144 12491,2894 12241,2894 Z"/>
 <path fill="none" stroke="rgb(255,211,32)" stroke-linejoin="round" d="M 12241,2894 L 12366,3144 12491,2894 12241,2894 Z"/>
 <path fill="rgb(255,211,32)" stroke="none" d="M 12889,2769 L 13014,3019 13139,2769 12889,2769 Z"/>
 <path fill="none" stroke="rgb(255,211,32)" stroke-linejoin="round" d="M 12889,2769 L 13014,3019 13139,2769 12889,2769 Z"/>
 <path fill="rgb(255,211,32)" stroke="none" d="M 13538,2143 L 13663,2393 13788,2143 13538,2143 Z"/>
 <path fill="none" stroke="rgb(255,211,32)" stroke-linejoin="round" d="M 13538,2143 L 13663,2393 13788,2143 13538,2143 Z"/>
 <path fill="rgb(255,211,32)" stroke="none" d="M 14187,1893 L 14312,2143 14437,1893 14187,1893 Z"/>
 <path fill="none" stroke="rgb(255,211,32)" stroke-linejoin="round" d="M 14187,1893 L 14312,2143 14437,1893 14187,1893 Z"/>
 <path fill="rgb(255,211,32)" stroke="none" d="M 14836,1643 L 14961,1893 15086,1643 14836,1643 Z"/>
 <path fill="none" stroke="rgb(255,211,32)" stroke-linejoin="round" d="M 14836,1643 L 14961,1893 15086,1643 14836,1643 Z"/>
 <path fill="none" stroke="rgb(87,157,28)" stroke-width="80" stroke-linejoin="round" d="M 1987,6521 L 2635,6396 3284,6396 3933,6396 4582,6271 5230,6021 5879,5645 6528,5270 7177,5145 7825,4645 8474,4395 9122,4020 9771,3770 10419,3394 11068,3019 11717,2644 12366,2393 13014,2018 13663,1768 14312,1267 14961,1142"/>
 <path fill="rgb(87,157,28)" stroke="none" d="M 1862,6646 L 2112,6646 1987,6396 1862,6646 Z"/>
 <path fill="none" stroke="rgb(87,157,28)" stroke-linejoin="round" d="M 1862,6646 L 2112,6646 1987,6396 1862,6646 Z"/>
 <path fill="rgb(87,157,28)" stroke="none" d="M 2510,6521 L 2760,6521 2635,6271 2510,6521 Z"/>
 <path fill="none" stroke="rgb(87,157,28)" stroke-linejoin="round" d="M 2510,6521 L 2760,6521 2635,6271 2510,6521 Z"/>
 <path fill="rgb(87,157,28)" stroke="none" d="M 3159,6521 L 3409,6521 3284,6271 3159,6521 Z"/>
 <path fill="none" stroke="rgb(87,157,28)" stroke-linejoin="round" d="M 3159,6521 L 3409,6521 3284,6271 3159,6521 Z"/>
 <path fill="rgb(87,157,28)" stroke="none" d="M 3808,6521 L 4058,6521 3933,6271 3808,6521 Z"/>
 <path fill="none" stroke="rgb(87,157,28)" stroke-linejoin="round" d="M 3808,6521 L 4058,6521 3933,6271 3808,6521 Z"/>
 <path fill="rgb(87,157,28)" stroke="none" d="M 4457,6396 L 4707,6396 4582,6146 4457,6396 Z"/>
 <path fill="none" stroke="rgb(87,157,28)" stroke-linejoin="round" d="M 4457,6396 L 4707,6396 4582,6146 4457,6396 Z"/>
 <path fill="rgb(87,157,28)" stroke="none" d="M 5105,6146 L 5355,6146 5230,5896 5105,6146 Z"/>
 <path fill="none" stroke="rgb(87,157,28)" stroke-linejoin="round" d="M 5105,6146 L 5355,6146 5230,5896 5105,6146 Z"/>
 <path fill="rgb(87,157,28)" stroke="none" d="M 5754,5770 L 6004,5770 5879,5520 5754,5770 Z"/>
 <path fill="none" stroke="rgb(87,157,28)" stroke-linejoin="round" d="M 5754,5770 L 6004,5770 5879,5520 5754,5770 Z"/>
 <path fill="rgb(87,157,28)" stroke="none" d="M 6403,5395 L 6653,5395 6528,5145 6403,5395 Z"/>
 <path fill="none" stroke="rgb(87,157,28)" stroke-linejoin="round" d="M 6403,5395 L 6653,5395 6528,5145 6403,5395 Z"/>
 <path fill="rgb(87,157,28)" stroke="none" d="M 7052,5270 L 7302,5270 7177,5020 7052,5270 Z"/>
 <path fill="none" stroke="rgb(87,157,28)" stroke-linejoin="round" d="M 7052,5270 L 7302,5270 7177,5020 7052,5270 Z"/>
 <path fill="rgb(87,157,28)" stroke="none" d="M 7700,4770 L 7950,4770 7825,4520 7700,4770 Z"/>
 <path fill="none" stroke="rgb(87,157,28)" stroke-linejoin="round" d="M 7700,4770 L 7950,4770 7825,4520 7700,4770 Z"/>
 <path fill="rgb(87,157,28)" stroke="none" d="M 8349,4520 L 8599,4520 8474,4270 8349,4520 Z"/>
 <path fill="none" stroke="rgb(87,157,28)" stroke-linejoin="round" d="M 8349,4520 L 8599,4520 8474,4270 8349,4520 Z"/>
 <path fill="rgb(87,157,28)" stroke="none" d="M 8997,4145 L 9247,4145 9122,3895 8997,4145 Z"/>
 <path fill="none" stroke="rgb(87,157,28)" stroke-linejoin="round" d="M 8997,4145 L 9247,4145 9122,3895 8997,4145 Z"/>
 <path fill="rgb(87,157,28)" stroke="none" d="M 9646,3895 L 9896,3895 9771,3645 9646,3895 Z"/>
 <path fill="none" stroke="rgb(87,157,28)" stroke-linejoin="round" d="M 9646,3895 L 9896,3895 9771,3645 9646,3895 Z"/>
 <path fill="rgb(87,157,28)" stroke="none" d="M 10294,3519 L 10544,3519 10419,3269 10294,3519 Z"/>
 <path fill="none" stroke="rgb(87,157,28)" stroke-linejoin="round" d="M 10294,3519 L 10544,3519 10419,3269 10294,3519 Z"/>
 <path fill="rgb(87,157,28)" stroke="none" d="M 10943,3144 L 11193,3144 11068,2894 10943,3144 Z"/>
 <path fill="none" stroke="rgb(87,157,28)" stroke-linejoin="round" d="M 10943,3144 L 11193,3144 11068,2894 10943,3144 Z"/>
 <path fill="rgb(87,157,28)" stroke="none" d="M 11592,2769 L 11842,2769 11717,2519 11592,2769 Z"/>
 <path fill="none" stroke="rgb(87,157,28)" stroke-linejoin="round" d="M 11592,2769 L 11842,2769 11717,2519 11592,2769 Z"/>
 <path fill="rgb(87,157,28)" stroke="none" d="M 12241,2518 L 12491,2518 12366,2268 12241,2518 Z"/>
 <path fill="none" stroke="rgb(87,157,28)" stroke-linejoin="round" d="M 12241,2518 L 12491,2518 12366,2268 12241,2518 Z"/>
 <path fill="rgb(87,157,28)" stroke="none" d="M 12889,2143 L 13139,2143 13014,1893 12889,2143 Z"/>
 <path fill="none" stroke="rgb(87,157,28)" stroke-linejoin="round" d="M 12889,2143 L 13139,2143 13014,1893 12889,2143 Z"/>
 <path fill="rgb(87,157,28)" stroke="none" d="M 13538,1893 L 13788,1893 13663,1643 13538,1893 Z"/>
 <path fill="none" stroke="rgb(87,157,28)" stroke-linejoin="round" d="M 13538,1893 L 13788,1893 13663,1643 13538,1893 Z"/>
 <path fill="rgb(87,157,28)" stroke="none" d="M 14187,1392 L 14437,1392 14312,1142 14187,1392 Z"/>
 <path fill="none" stroke="rgb(87,157,28)" stroke-linejoin="round" d="M 14187,1392 L 14437,1392 14312,1142 14187,1392 Z"/>
 <path fill="rgb(87,157,28)" stroke="none" d="M 14836,1267 L 15086,1267 14961,1017 14836,1267 Z"/>
 <path fill="none" stroke="rgb(87,157,28)" stroke-linejoin="round" d="M 14836,1267 L 15086,1267 14961,1017 14836,1267 Z"/>
 <path fill="none" stroke="rgb(126,0,33)" stroke-width="80" stroke-linejoin="round" d="M 1987,6396 L 2635,6396 3284,6521 3933,6396 4582,6271 5230,5896 5879,5520 6528,5270 7177,4895 7825,4645 8474,4145 9122,4020 9771,3519 10419,3269 11068,2769 11717,2518 12366,2393 13014,1893 13663,1643 14312,1392 14961,892"/>
 <path fill="rgb(126,0,33)" stroke="none" d="M 1862,6271 L 1862,6521 2112,6396 1862,6271 Z"/>
 <path fill="none" stroke="rgb(126,0,33)" stroke-linejoin="round" d="M 1862,6271 L 1862,6521 2112,6396 1862,6271 Z"/>
 <path fill="rgb(126,0,33)" stroke="none" d="M 2510,6271 L 2510,6521 2760,6396 2510,6271 Z"/>
 <path fill="none" stroke="rgb(126,0,33)" stroke-linejoin="round" d="M 2510,6271 L 2510,6521 2760,6396 2510,6271 Z"/>
 <path fill="rgb(126,0,33)" stroke="none" d="M 3159,6396 L 3159,6646 3409,6521 3159,6396 Z"/>
 <path fill="none" stroke="rgb(126,0,33)" stroke-linejoin="round" d="M 3159,6396 L 3159,6646 3409,6521 3159,6396 Z"/>
 <path fill="rgb(126,0,33)" stroke="none" d="M 3808,6271 L 3808,6521 4058,6396 3808,6271 Z"/>
 <path fill="none" stroke="rgb(126,0,33)" stroke-linejoin="round" d="M 3808,6271 L 3808,6521 4058,6396 3808,6271 Z"/>
 <path fill="rgb(126,0,33)" stroke="none" d="M 4457,6146 L 4457,6396 4707,6271 4457,6146 Z"/>
 <path fill="none" stroke="rgb(126,0,33)" stroke-linejoin="round" d="M 4457,6146 L 4457,6396 4707,6271 4457,6146 Z"/>
 <path fill="rgb(126,0,33)" stroke="none" d="M 5105,5771 L 5105,6021 5355,5896 5105,5771 Z"/>
 <path fill="none" stroke="rgb(126,0,33)" stroke-linejoin="round" d="M 5105,5771 L 5105,6021 5355,5896 5105,5771 Z"/>
 <path fill="rgb(126,0,33)" stroke="none" d="M 5754,5395 L 5754,5645 6004,5520 5754,5395 Z"/>
 <path fill="none" stroke="rgb(126,0,33)" stroke-linejoin="round" d="M 5754,5395 L 5754,5645 6004,5520 5754,5395 Z"/>
 <path fill="rgb(126,0,33)" stroke="none" d="M 6403,5145 L 6403,5395 6653,5270 6403,5145 Z"/>
 <path fill="none" stroke="rgb(126,0,33)" stroke-linejoin="round" d="M 6403,5145 L 6403,5395 6653,5270 6403,5145 Z"/>
 <path fill="rgb(126,0,33)" stroke="none" d="M 7052,4771 L 7052,5020 7302,4895 7052,4771 Z"/>
 <path fill="none" stroke="rgb(126,0,33)" stroke-linejoin="round" d="M 7052,4771 L 7052,5020 7302,4895 7052,4771 Z"/>
 <path fill="rgb(126,0,33)" stroke="none" d="M 7700,4520 L 7700,4770 7950,4645 7700,4520 Z"/>
 <path fill="none" stroke="rgb(126,0,33)" stroke-linejoin="round" d="M 7700,4520 L 7700,4770 7950,4645 7700,4520 Z"/>
 <path fill="rgb(126,0,33)" stroke="none" d="M 8349,4020 L 8349,4270 8599,4145 8349,4020 Z"/>
 <path fill="none" stroke="rgb(126,0,33)" stroke-linejoin="round" d="M 8349,4020 L 8349,4270 8599,4145 8349,4020 Z"/>
 <path fill="rgb(126,0,33)" stroke="none" d="M 8997,3895 L 8997,4145 9247,4020 8997,3895 Z"/>
 <path fill="none" stroke="rgb(126,0,33)" stroke-linejoin="round" d="M 8997,3895 L 8997,4145 9247,4020 8997,3895 Z"/>
 <path fill="rgb(126,0,33)" stroke="none" d="M 9646,3394 L 9646,3644 9896,3519 9646,3394 Z"/>
 <path fill="none" stroke="rgb(126,0,33)" stroke-linejoin="round" d="M 9646,3394 L 9646,3644 9896,3519 9646,3394 Z"/>
 <path fill="rgb(126,0,33)" stroke="none" d="M 10294,3144 L 10294,3394 10544,3269 10294,3144 Z"/>
 <path fill="none" stroke="rgb(126,0,33)" stroke-linejoin="round" d="M 10294,3144 L 10294,3394 10544,3269 10294,3144 Z"/>
 <path fill="rgb(126,0,33)" stroke="none" d="M 10943,2644 L 10943,2894 11193,2769 10943,2644 Z"/>
 <path fill="none" stroke="rgb(126,0,33)" stroke-linejoin="round" d="M 10943,2644 L 10943,2894 11193,2769 10943,2644 Z"/>
 <path fill="rgb(126,0,33)" stroke="none" d="M 11592,2393 L 11592,2643 11842,2518 11592,2393 Z"/>
 <path fill="none" stroke="rgb(126,0,33)" stroke-linejoin="round" d="M 11592,2393 L 11592,2643 11842,2518 11592,2393 Z"/>
 <path fill="rgb(126,0,33)" stroke="none" d="M 12241,2268 L 12241,2518 12491,2393 12241,2268 Z"/>
 <path fill="none" stroke="rgb(126,0,33)" stroke-linejoin="round" d="M 12241,2268 L 12241,2518 12491,2393 12241,2268 Z"/>
 <path fill="rgb(126,0,33)" stroke="none" d="M 12889,1768 L 12889,2018 13139,1893 12889,1768 Z"/>
 <path fill="none" stroke="rgb(126,0,33)" stroke-linejoin="round" d="M 12889,1768 L 12889,2018 13139,1893 12889,1768 Z"/>
 <path fill="rgb(126,0,33)" stroke="none" d="M 13538,1518 L 13538,1768 13788,1643 13538,1518 Z"/>
 <path fill="none" stroke="rgb(126,0,33)" stroke-linejoin="round" d="M 13538,1518 L 13538,1768 13788,1643 13538,1518 Z"/>
 <path fill="rgb(126,0,33)" stroke="none" d="M 14187,1267 L 14187,1517 14437,1392 14187,1267 Z"/>
 <path fill="none" stroke="rgb(126,0,33)" stroke-linejoin="round" d="M 14187,1267 L 14187,1517 14437,1392 14187,1267 Z"/>
 <path fill="rgb(126,0,33)" stroke="none" d="M 14836,767 L 14836,1017 15086,892 14836,767 Z"/>
 <path fill="none" stroke="rgb(126,0,33)" stroke-linejoin="round" d="M 14836,767 L 14836,1017 15086,892 14836,767 Z"/>
 <text class="TextShape"><tspan class="TextParagraph" font-family="Liberation Sans" font-size="353px" font-weight="400"><tspan class="TextPosition" x="1894" y="8466"><tspan fill="rgb(0,0,0)" stroke="none">1</tspan></tspan></tspan></text>
 <text class="TextShape"><tspan class="TextParagraph" font-family="Liberation Sans" font-size="353px" font-weight="400"><tspan class="TextPosition" x="2542" y="8466"><tspan fill="rgb(0,0,0)" stroke="none">5</tspan></tspan></tspan></text>
 <text class="TextShape"><tspan class="TextParagraph" font-family="Liberation Sans" font-size="353px" font-weight="400"><tspan class="TextPosition" x="3099" y="8466"><tspan fill="rgb(0,0,0)" stroke="none">10</tspan></tspan></tspan></text>
 <text class="TextShape"><tspan class="TextParagraph" font-family="Liberation Sans" font-size="353px" font-weight="400"><tspan class="TextPosition" x="3748" y="8466"><tspan fill="rgb(0,0,0)" stroke="none">15</tspan></tspan></tspan></text>
 <text class="TextShape"><tspan class="TextParagraph" font-family="Liberation Sans" font-size="353px" font-weight="400"><tspan class="TextPosition" x="4397" y="8466"><tspan fill="rgb(0,0,0)" stroke="none">20</tspan></tspan></tspan></text>
 <text class="TextShape"><tspan class="TextParagraph" font-family="Liberation Sans" font-size="353px" font-weight="400"><tspan class="TextPosition" x="5045" y="8466"><tspan fill="rgb(0,0,0)" stroke="none">25</tspan></tspan></tspan></text>
 <text class="TextShape"><tspan class="TextParagraph" font-family="Liberation Sans" font-size="353px" font-weight="400"><tspan class="TextPosition" x="5694" y="8466"><tspan fill="rgb(0,0,0)" stroke="none">30</tspan></tspan></tspan></text>
 <text class="TextShape"><tspan class="TextParagraph" font-family="Liberation Sans" font-size="353px" font-weight="400"><tspan class="TextPosition" x="6343" y="8466"><tspan fill="rgb(0,0,0)" stroke="none">35</tspan></tspan></tspan></text>
 <text class="TextShape"><tspan class="TextParagraph" font-family="Liberation Sans" font-size="353px" font-weight="400"><tspan class="TextPosition" x="6992" y="8466"><tspan fill="rgb(0,0,0)" stroke="none">40</tspan></tspan></tspan></text>
 <text class="TextShape"><tspan class="TextParagraph" font-family="Liberation Sans" font-size="353px" font-weight="400"><tspan class="TextPosition" x="7640" y="8466"><tspan fill="rgb(0,0,0)" stroke="none">45</tspan></tspan></tspan></text>
 <text class="TextShape"><tspan class="TextParagraph" font-family="Liberation Sans" font-size="353px" font-weight="400"><tspan class="TextPosition" x="8289" y="8466"><tspan fill="rgb(0,0,0)" stroke="none">50</tspan></tspan></tspan></text>
 <text class="TextShape"><tspan class="TextParagraph" font-family="Liberation Sans" font-size="353px" font-weight="400"><tspan class="TextPosition" x="8938" y="8466"><tspan fill="rgb(0,0,0)" stroke="none">55</tspan></tspan></tspan></text>
 <text class="TextShape"><tspan class="TextParagraph" font-family="Liberation Sans" font-size="353px" font-weight="400"><tspan class="TextPosition" x="9587" y="8466"><tspan fill="rgb(0,0,0)" stroke="none">60</tspan></tspan></tspan></text>
 <text class="TextShape"><tspan class="TextParagraph" font-family="Liberation Sans" font-size="353px" font-weight="400"><tspan class="TextPosition" x="10235" y="8466"><tspan fill="rgb(0,0,0)" stroke="none">65</tspan></tspan></tspan></text>
 <text class="TextShape"><tspan class="TextParagraph" font-family="Liberation Sans" font-size="353px" font-weight="400"><tspan class="TextPosition" x="10884" y="8466"><tspan fill="rgb(0,0,0)" stroke="none">70</tspan></tspan></tspan></text>
 <text class="TextShape"><tspan class="TextParagraph" font-family="Liberation Sans" font-size="353px" font-weight="400"><tspan class="TextPosition" x="11533" y="8466"><tspan fill="rgb(0,0,0)" stroke="none">75</tspan></tspan></tspan></text>
 <text class="TextShape"><tspan class="TextParagraph" font-family="Liberation Sans" font-size="353px" font-weight="400"><tspan class="TextPosition" x="12182" y="8466"><tspan fill="rgb(0,0,0)" stroke="none">80</tspan></tspan></tspan></text>
 <text class="TextShape"><tspan class="TextParagraph" font-family="Liberation Sans" font-size="353px" font-weight="400"><tspan class="TextPosition" x="12830" y="8466"><tspan fill="rgb(0,0,0)" stroke="none">85</tspan></tspan></tspan></text>
 <text class="TextShape"><tspan class="TextParagraph" font-family="Liberation Sans" font-size="353px" font-weight="400"><tspan class="TextPosition" x="13479" y="8466"><tspan fill="rgb(0,0,0)" stroke="none">90</tspan></tspan></tspan></text>
 <text class="TextShape"><tspan class="TextParagraph" font-family="Liberation Sans" font-size="353px" font-weight="400"><tspan class="TextPosition" x="14128" y="8466"><tspan fill="rgb(0,0,0)" stroke="none">95</tspan></tspan></tspan></text>
 <text class="TextShape"><tspan class="TextParagraph" font-family="Liberation Sans" font-size="353px" font-weight="400"><tspan class="TextPosition" x="14684" y="8466"><tspan fill="rgb(0,0,0)" stroke="none">100</tspan></tspan></tspan></text>
 <text class="TextShape"><tspan class="TextParagraph" font-family="Liberation Sans" font-size="353px" font-weight="400"><tspan class="TextPosition" x="1552" y="8019"><tspan fill="rgb(0,0,0)" stroke="none">0</tspan></tspan></tspan></text>
 <text class="TextShape"><tspan class="TextParagraph" font-family="Liberation Sans" font-size="353px" font-weight="400"><tspan class="TextPosition" x="1367" y="6767"><tspan fill="rgb(0,0,0)" stroke="none">10</tspan></tspan></tspan></text>
 <text class="TextShape"><tspan class="TextParagraph" font-family="Liberation Sans" font-size="353px" font-weight="400"><tspan class="TextPosition" x="1367" y="5516"><tspan fill="rgb(0,0,0)" stroke="none">20</tspan></tspan></tspan></text>
 <text class="TextShape"><tspan class="TextParagraph" font-family="Liberation Sans" font-size="353px" font-weight="400"><tspan class="TextPosition" x="1367" y="4265"><tspan fill="rgb(0,0,0)" stroke="none">30</tspan></tspan></tspan></text>
 <text class="TextShape"><tspan class="TextParagraph" font-family="Liberation Sans" font-size="353px" font-weight="400"><tspan class="TextPosition" x="1367" y="3014"><tspan fill="rgb(0,0,0)" stroke="none">40</tspan></tspan></tspan></text>
 <text class="TextShape"><tspan class="TextParagraph" font-family="Liberation Sans" font-size="353px" font-weight="400"><tspan class="TextPosition" x="1367" y="1763"><tspan fill="rgb(0,0,0)" stroke="none">50</tspan></tspan></tspan></text>
 <text class="TextShape"><tspan class="TextParagraph" font-family="Liberation Sans" font-size="353px" font-weight="400"><tspan class="TextPosition" x="1367" y="512"><tspan fill="rgb(0,0,0)" stroke="none">60</tspan></tspan></tspan></text>
 <path fill="none" stroke="rgb(0,69,134)" stroke-width="80" stroke-linejoin="round" d="M 15712,3864 L 16512,3864"/>
 <path fill="rgb(0,69,134)" stroke="none" d="M 16006,3759 L 16006,3969 16217,3969 16217,3759 16006,3759 Z"/>
 <path fill="none" stroke="rgb(0,69,134)" stroke-linejoin="round" d="M 16006,3759 L 16006,3969 16217,3969 16217,3759 16006,3759 Z"/>
 <path fill="none" stroke="rgb(255,66,14)" stroke-width="80" stroke-linejoin="round" d="M 15712,4362 L 16512,4362"/>
 <path fill="rgb(255,66,14)" stroke="none" d="M 16006,4362 L 16112,4467 16217,4362 16112,4257 16006,4362 Z"/>
 <path fill="none" stroke="rgb(255,66,14)" stroke-linejoin="round" d="M 16006,4362 L 16112,4467 16217,4362 16112,4257 16006,4362 Z"/>
 <path fill="none" stroke="rgb(255,211,32)" stroke-width="80" stroke-linejoin="round" d="M 15712,4860 L 16512,4860"/>
 <path fill="rgb(255,211,32)" stroke="none" d="M 16006,4755 L 16112,4964 16217,4755 16006,4755 Z"/>
 <path fill="none" stroke="rgb(255,211,32)" stroke-linejoin="round" d="M 16006,4755 L 16112,4964 16217,4755 16006,4755 Z"/>
 <path fill="none" stroke="rgb(87,157,28)" stroke-width="80" stroke-linejoin="round" d="M 15712,5357 L 16512,5357"/>
 <path fill="rgb(87,157,28)" stroke="none" d="M 16006,5462 L 16217,5462 16112,5252 16006,5462 Z"/>
 <path fill="none" stroke="rgb(87,157,28)" stroke-linejoin="round" d="M 16006,5462 L 16217,5462 16112,5252 16006,5462 Z"/>
 <path fill="none" stroke="rgb(126,0,33)" stroke-width="80" stroke-linejoin="round" d="M 15712,5855 L 16512,5855"/>
 <path fill="rgb(126,0,33)" stroke="none" d="M 16006,5750 L 16006,5960 16217,5855 16006,5750 Z"/>
 <path fill="none" stroke="rgb(126,0,33)" stroke-linejoin="round" d="M 16006,5750 L 16006,5960 16217,5855 16006,5750 Z"/>
 <text class="TextShape"><tspan class="TextParagraph" font-family="Liberation Sans" font-size="353px" font-weight="400"><tspan class="TextPosition" x="16612" y="3984"><tspan fill="rgb(0,0,0)" stroke="none">N = 1</tspan></tspan></tspan></text>
 <text class="TextShape"><tspan class="TextParagraph" font-family="Liberation Sans" font-size="353px" font-weight="400"><tspan class="TextPosition" x="16612" y="4482"><tspan fill="rgb(0,0,0)" stroke="none">N = 2</tspan></tspan></tspan></text>
 <text class="TextShape"><tspan class="TextParagraph" font-family="Liberation Sans" font-size="353px" font-weight="400"><tspan class="TextPosition" x="16612" y="4979"><tspan fill="rgb(0,0,0)" stroke="none">N = 3</tspan></tspan></tspan></text>
 <text class="TextShape"><tspan class="TextParagraph" font-family="Liberation Sans" font-size="353px" font-weight="400"><tspan class="TextPosition" x="16612" y="5477"><tspan fill="rgb(0,0,0)" stroke="none">N = 5</tspan></tspan></tspan></text>
 <text class="TextShape"><tspan class="TextParagraph" font-family="Liberation Sans" font-size="353px" font-weight="400"><tspan class="TextPosition" x="16612" y="5975"><tspan fill="rgb(0,0,0)" stroke="none">GT</tspan></tspan></tspan></text>
 <text class="TextShape"><tspan class="TextParagraph" font-family="Liberation Sans" font-size="318px" font-weight="400"><tspan class="TextPosition" x="7457" y="9127"><tspan fill="rgb(0,0,0)" stroke="none">Stützpunkte</tspan></tspan></tspan></text>
 <text class="TextShape"><tspan class="TextParagraph" font-family="Liberation Sans" font-size="318px" font-weight="400"><tspan class="TextPosition" x="837" y="5110" transform="translate(837,5110) rotate(-90) translate(-837,-5110)"><tspan fill="rgb(0,0,0)" stroke="none">Sekunden</tspan></tspan></tspan></text>
</svg>