<?xml version="1.0" encoding="UTF-8" standalone="no"?>
<!-- Created with Inkscape (http://www.inkscape.org/) -->

<svg
   xmlns:dc="http://purl.org/dc/elements/1.1/"
   xmlns:cc="http://creativecommons.org/ns#"
   xmlns:rdf="http://www.w3.org/1999/02/22-rdf-syntax-ns#"
   xmlns:svg="http://www.w3.org/2000/svg"
   xmlns="http://www.w3.org/2000/svg"
   xmlns:sodipodi="http://sodipodi.sourceforge.net/DTD/sodipodi-0.dtd"
   xmlns:inkscape="http://www.inkscape.org/namespaces/inkscape"
   width="640"
   height="480"
   id="svg2"
   version="1.1"
   inkscape:version="0.48.4 r9939"
   sodipodi:docname="ablauf.svg"
   inkscape:export-filename="/home/josef/Dokumente/Studium/GTRenderer/Vortrag/images/ablauf.png"
   inkscape:export-xdpi="1682.1625"
   inkscape:export-ydpi="1682.1625">
  <defs
     id="defs4">
    <marker
       inkscape:stockid="Arrow2Mend"
       orient="auto"
       refY="0.0"
       refX="0.0"
       id="Arrow2Mend"
       style="overflow:visible;">
      <path
         id="path3838"
         style="fill-rule:evenodd;stroke-width:0.62500000;stroke-linejoin:round;"
         d="M 8.7185878,4.0337352 L -2.2072895,0.016013256 L 8.7185884,-4.0017078 C 6.9730900,-1.6296469 6.9831476,1.6157441 8.7185878,4.0337352 z "
         transform="scale(0.6) rotate(180) translate(0,0)" />
    </marker>
  </defs>
  <sodipodi:namedview
     id="base"
     pagecolor="#ffffff"
     bordercolor="#666666"
     borderopacity="1.0"
     inkscape:pageopacity="0.0"
     inkscape:pageshadow="2"
     inkscape:zoom="5.6"
     inkscape:cx="271.76623"
     inkscape:cy="287.10777"
     inkscape:document-units="px"
     inkscape:current-layer="layer1"
     showgrid="true"
     inkscape:window-width="1918"
     inkscape:window-height="1049"
     inkscape:window-x="0"
     inkscape:window-y="0"
     inkscape:window-maximized="0">
    <inkscape:grid
       empspacing="5"
       visible="true"
       enabled="true"
       snapvisiblegridlinesonly="true"
       type="xygrid"
       id="grid2985" />
  </sodipodi:namedview>
  <metadata
     id="metadata7">
    <rdf:RDF>
      <cc:Work
         rdf:about="">
        <dc:format>image/svg+xml</dc:format>
        <dc:type
           rdf:resource="http://purl.org/dc/dcmitype/StillImage" />
        <dc:title></dc:title>
      </cc:Work>
    </rdf:RDF>
  </metadata>
  <g
     inkscape:label="Ebene 1"
     inkscape:groupmode="layer"
     id="layer1"
     transform="translate(0,-572.36218)">
    <path
       style="fill:none;stroke:#000000;stroke-width:0.69051778px;stroke-linecap:butt;stroke-linejoin:miter;stroke-opacity:1"
       d="m 227.11903,765.95743 -18.52378,11.58332 18.52378,11.58332 0,0"
       id="path3004"
       inkscape:connector-curvature="0" />
    <path
       sodipodi:type="arc"
       style="fill:#1cffff;fill-opacity:1;fill-rule:evenodd;stroke:#000000;stroke-width:1;stroke-miterlimit:4;stroke-opacity:1;stroke-dasharray:none;stroke-dashoffset:0"
       id="path3021"
       sodipodi:cx="245"
       sodipodi:cy="216"
       sodipodi:rx="12"
       sodipodi:ry="9"
       d="M 255.02392,211.05222 A 12,9 0 0 1 254.9222,221.0618 L 245,216 z"
       transform="matrix(0.61745905,0,0,0.77222094,57.372918,610.61692)"
       sodipodi:start="5.7011163"
       sodipodi:end="6.8804978" />
    <path
       sodipodi:type="arc"
       style="fill:#ffff00;fill-opacity:1;fill-rule:evenodd;stroke:#000000;stroke-width:1;stroke-miterlimit:4;stroke-opacity:1;stroke-dasharray:1, 1;stroke-dashoffset:0"
       id="path3803"
       sodipodi:cx="365"
       sodipodi:cy="210"
       sodipodi:rx="5"
       sodipodi:ry="5"
       d="m 369.17663,207.25123 a 5,5 0 1 1 -0.0191,-0.0288"
       transform="translate(-44.642857,568.07647)"
       sodipodi:start="5.7011163"
       sodipodi:end="11.977389"
       sodipodi:open="true" />
    <text
       xml:space="preserve"
       style="font-size:12px;font-style:normal;font-weight:normal;line-height:125%;letter-spacing:0px;word-spacing:0px;fill:#000000;fill-opacity:1;stroke:none;font-family:Sans"
       x="247.5"
       y="221.42857"
       id="text4251"
       sodipodi:linespacing="125%"
       transform="translate(0,572.36218)"><tspan
         sodipodi:role="line"
         id="tspan4253"
         x="247.5"
         y="221.42857" /></text>
    <path
       sodipodi:type="arc"
       style="fill:#646464;fill-opacity:1;fill-rule:evenodd;stroke:#050505;stroke-width:0.5;stroke-miterlimit:4;stroke-opacity:1;stroke-dasharray:none;stroke-dashoffset:0"
       id="path5071"
       sodipodi:cx="217.5"
       sodipodi:cy="142.5"
       sodipodi:rx="12.5"
       sodipodi:ry="12.5"
       d="m 230,142.5 a 12.5,12.5 0 1 1 -25,0 12.5,12.5 0 1 1 25,0 z"
       transform="translate(35.357144,591.6479)" />
    <path
       sodipodi:type="arc"
       style="fill:#ffff00;fill-opacity:1;fill-rule:evenodd;stroke:#000000;stroke-width:1;stroke-miterlimit:4;stroke-opacity:1;stroke-dasharray:1, 1;stroke-dashoffset:0"
       id="path3803-2"
       sodipodi:cx="365"
       sodipodi:cy="210"
       sodipodi:rx="5"
       sodipodi:ry="5"
       d="m 369.17663,207.25123 a 5,5 0 1 1 -0.0191,-0.0288"
       transform="translate(-74.642861,452.18361)"
       sodipodi:start="5.7011163"
       sodipodi:end="11.977389"
       sodipodi:open="true" />
    <path
       style="fill:none;stroke:#000000;stroke-width:0.50000000000000000;stroke-linecap:butt;stroke-linejoin:miter;stroke-opacity:1;stroke-miterlimit:4;stroke-dasharray:none;marker-end:url(#Arrow2Mend)"
       d="M 265,205 290,90"
       id="path6231"
       inkscape:connector-curvature="0"
       transform="translate(0,572.36218)" />
    <path
       style="fill:#000000;fill-opacity:0;fill-rule:evenodd;stroke:#ffffff;stroke-width:0.17857143;stroke-miterlimit:4;stroke-opacity:1;stroke-dasharray:none;stroke-dashoffset:0"
       d=""
       id="path6989"
       inkscape:connector-curvature="0"
       transform="translate(0,572.36218)" />
    <path
       style="fill:#000000;fill-opacity:0;fill-rule:evenodd;stroke:#ffffff;stroke-width:0.17857143;stroke-miterlimit:4;stroke-opacity:1;stroke-dasharray:none;stroke-dashoffset:0"
       d=""
       id="path6991"
       inkscape:connector-curvature="0"
       transform="translate(0,572.36218)" />
    <path
       style="fill:#000000;fill-opacity:0;fill-rule:evenodd;stroke:#ffffff;stroke-width:0.17857143;stroke-miterlimit:4;stroke-opacity:1;stroke-dasharray:none;stroke-dashoffset:0"
       d=""
       id="path6993"
       inkscape:connector-curvature="0"
       transform="translate(0,572.36218)" />
    <path
       style="fill:#000000;fill-opacity:0;fill-rule:evenodd;stroke:#ffffff;stroke-width:0.17857143;stroke-miterlimit:4;stroke-opacity:1;stroke-dasharray:none;stroke-dashoffset:0"
       d=""
       id="path6995"
       inkscape:connector-curvature="0"
       transform="translate(0,572.36218)" />
    <path
       style="fill:#000000;fill-opacity:0;fill-rule:evenodd;stroke:#ffffff;stroke-width:0.17857143;stroke-miterlimit:4;stroke-opacity:1;stroke-dasharray:none;stroke-dashoffset:0"
       d=""
       id="path6997"
       inkscape:connector-curvature="0"
       transform="translate(0,572.36218)" />
    <path
       sodipodi:type="arc"
       style="fill:#ffffff;fill-opacity:1;fill-rule:evenodd;stroke:#050505;stroke-width:0.5;stroke-miterlimit:4;stroke-opacity:1;stroke-dasharray:none;stroke-dashoffset:0"
       id="path5071-5"
       sodipodi:cx="217.5"
       sodipodi:cy="142.5"
       sodipodi:rx="12.5"
       sodipodi:ry="12.5"
       d="m 230,142.5 a 12.5,12.5 0 1 1 -25,0 12.5,12.5 0 1 1 25,0 z"
       transform="translate(34.999997,634.86219)" />
    <path
       sodipodi:type="arc"
       style="fill:#ffffff;fill-opacity:1;fill-rule:evenodd;stroke:#050505;stroke-width:0.5;stroke-miterlimit:4;stroke-opacity:1;stroke-dasharray:none;stroke-dashoffset:0"
       id="path5071-54"
       sodipodi:cx="217.5"
       sodipodi:cy="142.5"
       sodipodi:rx="12.5"
       sodipodi:ry="12.5"
       d="m 230,142.5 a 12.5,12.5 0 1 1 -25,0 12.5,12.5 0 1 1 25,0 z"
       transform="translate(74.999997,634.86219)" />
    <path
       style="fill:none;stroke:#000000;stroke-width:0.50000000000000000;stroke-linecap:butt;stroke-linejoin:miter;stroke-opacity:1;stroke-miterlimit:4;stroke-dasharray:none;marker-end:url(#Arrow2Mend)"
       d="M 250,205 290,90"
       id="path6415"
       inkscape:connector-curvature="0"
       transform="translate(0,572.36218)" />
    <path
       style="fill:none;stroke:#000000;stroke-width:0.50000000000000000;stroke-linecap:butt;stroke-linejoin:miter;stroke-opacity:1;stroke-miterlimit:4;stroke-dasharray:none;marker-end:url(#Arrow2Mend)"
       d="M 240,205 290,90"
       id="path6047"
       inkscape:connector-curvature="0"
       transform="translate(0,572.36218)" />
    <path
       style="fill:none;stroke:#000000;stroke-width:0.50000000000000000;stroke-linecap:butt;stroke-linejoin:miter;stroke-opacity:1;stroke-miterlimit:4;stroke-dasharray:none;marker-end:url(#Arrow2Mend)"
       d="M 295,205 290,90"
       id="path6785"
       inkscape:connector-curvature="0"
       transform="translate(0,572.36218)" />
    <path
       style="fill:none;stroke:#000000;stroke-width:0.5;stroke-linecap:butt;stroke-linejoin:miter;stroke-opacity:1;stroke-miterlimit:4;stroke-dasharray:none"
       d="M 305,205 290,90"
       id="path6599"
       inkscape:connector-curvature="0"
       transform="translate(0,572.36218)" />
    <path
       style="fill:none;stroke:#000000;stroke-width:0.36523098;stroke-linecap:butt;stroke-linejoin:miter;stroke-miterlimit:4;stroke-opacity:1;stroke-dasharray:none;marker-end:url(#Arrow2Mend)"
       d="m 220.28976,777.71966 91.61132,0"
       id="path3805"
       inkscape:connector-curvature="0" />
    <path
       style="fill:none;stroke:#000000;stroke-width:0.50000000000000000;stroke-linecap:butt;stroke-linejoin:miter;stroke-opacity:1;stroke-miterlimit:4;stroke-dasharray:none;marker-end:url(#Arrow2Mend)"
       d="M 280,205 290,90"
       id="path6601"
       inkscape:connector-curvature="0"
       transform="translate(0,572.36218)" />
    <path
       style="fill:#ffffff;fill-opacity:1;fill-rule:evenodd;stroke:#ffffff;stroke-width:0.17857143;stroke-miterlimit:4;stroke-opacity:1;stroke-dasharray:none;stroke-dashoffset:0"
       d="m 240.77446,204.50777 c 0.0946,-0.24554 0.93889,-2.2528 1.87617,-4.46058 1.56789,-3.69322 1.83559,-4.09684 3.34832,-5.04844 1.97003,-1.23927 3.58989,-1.77724 5.75133,-1.91007 2.02058,-0.12417 2.02803,-0.25441 -0.37815,6.60927 l -1.84266,5.25625 -4.46352,0 c -3.42447,0 -4.42347,-0.10392 -4.29149,-0.44643 z"
       id="path7026"
       inkscape:connector-curvature="0"
       transform="translate(0,572.36218)" />
    <path
       style="fill:#646464;fill-opacity:1;fill-rule:evenodd;stroke:#ffffff;stroke-width:0.04464286;stroke-miterlimit:4;stroke-opacity:1;stroke-dasharray:none;stroke-dashoffset:0"
       d="m 240.36464,204.94081 c 0.0252,-0.0859 0.89494,-2.10394 1.93266,-4.48444 1.13263,-2.59825 1.97874,-4.4242 2.11689,-4.5684 0.67013,-0.69946 2.66673,-1.89439 3.91645,-2.34393 1.47794,-0.53163 3.65375,-0.84289 4.92193,-0.70411 l 0.63622,0.0696 -2.08432,5.98214 c -1.14638,3.29018 -2.08558,6.00933 -2.08711,6.04256 -0.002,0.0332 0.0675,0.0788 0.15346,0.10125 0.0859,0.0225 -2.02813,0.0455 -4.69792,0.0512 -4.58373,0.01 -4.8516,0.002 -4.80826,-0.14589 l 0,0 z"
       id="path7040"
       inkscape:connector-curvature="0"
       transform="translate(0,572.36218)" />
    <path
       style="fill:#646464;fill-opacity:1;fill-rule:evenodd;stroke:#ffffff;stroke-width:0.04464286;stroke-miterlimit:4;stroke-opacity:1;stroke-dasharray:none;stroke-dashoffset:0"
       d="m 240.51814,202.82771 c 0,-0.51021 0.5961,-2.32475 1.07606,-3.27554 0.37011,-0.7332 1.06605,-1.80705 1.12979,-1.74331 0.0422,0.0422 -2.05855,5.01003 -2.17265,5.1379 -0.0183,0.0205 -0.0332,-0.0331 -0.0332,-0.11905 z"
       id="path7042"
       inkscape:connector-curvature="0"
       transform="translate(0,572.36218)" />
    <path
       style="fill:#ffff84;fill-opacity:1;fill-rule:evenodd;stroke:#ffffff;stroke-width:0.04464286;stroke-miterlimit:4;stroke-opacity:1;stroke-dasharray:none;stroke-dashoffset:0"
       d="m 250.34509,204.98545 c 0.003,-0.0614 0.93767,-2.78348 2.07695,-6.04911 l 2.07143,-5.9375 0.2668,0.03 c 0.14674,0.0165 0.54137,0.10525 0.87697,0.19728 2.9348,0.80476 5.39156,2.58869 7.06468,5.12989 1.15083,1.74794 1.80753,3.71938 1.97036,5.91518 l 0.0612,0.8259 -7.19697,0 c -5.70101,0 -7.19583,-0.0232 -7.19146,-0.11161 z"
       id="path7050"
       inkscape:connector-curvature="0"
       transform="translate(0,572.36218)" />
    <path
       style="fill:#ffff84;fill-opacity:1;fill-rule:evenodd;stroke:#ffffff;stroke-width:0.04464286;stroke-miterlimit:4;stroke-opacity:1;stroke-dasharray:none;stroke-dashoffset:0"
       d="m 280.37771,204.13723 c 0.23828,-3.6586 2.04188,-6.88964 5.05119,-9.04889 1.77402,-1.2729 3.77054,-2.0085 6.02674,-2.22051 0.98137,-0.0922 2.60254,-0.0366 2.68201,0.0919 0.0231,0.0374 0.14055,2.35173 0.26092,5.14286 0.12037,2.79114 0.2441,5.50671 0.27495,6.03461 l 0.0561,0.95983 -7.20721,0 -7.20721,0 0.0625,-0.95983 0,0 z"
       id="path7052"
       inkscape:connector-curvature="0"
       transform="translate(0,572.36218)" />
    <path
       style="fill:#ffff84;fill-opacity:1;fill-rule:evenodd;stroke:#ffffff;stroke-width:0.04464286;stroke-miterlimit:4;stroke-opacity:1;stroke-dasharray:none;stroke-dashoffset:0"
       d="m 295.00475,205.0331 c 0.30935,-0.0469 0.3084,0.47039 0.0117,-6.38885 -0.1312,-3.03342 -0.21443,-5.53942 -0.18496,-5.5689 0.0636,-0.0636 1.24637,0.24762 1.92321,0.50607 2.45835,0.93871 4.50182,2.57927 5.9472,4.77456 1.03063,1.56537 1.49283,2.81289 1.74042,4.69753 0.0993,0.75565 0.20466,1.52457 0.23421,1.70872 l 0.0537,0.33483 -4.98552,-0.0134 c -2.74204,-0.007 -4.87504,-0.0301 -4.73999,-0.0506 z"
       id="path7054"
       inkscape:connector-curvature="0"
       transform="translate(0,572.36218)" />
  </g>
</svg>
